<?xml version="1.0" encoding="UTF-8" standalone="no"?>
<svg
   viewBox="-2 -2 515 515"
   version="1.1"
   id="svg1"
   sodipodi:docname="circle-check-solid.svg"
   inkscape:version="1.3.2 (091e20e, 2023-11-25, custom)"
   width="515"
   height="515"
   xmlns:inkscape="http://www.inkscape.org/namespaces/inkscape"
   xmlns:sodipodi="http://sodipodi.sourceforge.net/DTD/sodipodi-0.dtd"
   xmlns="http://www.w3.org/2000/svg"
   xmlns:svg="http://www.w3.org/2000/svg">
  <defs
     id="defs1" />
  <sodipodi:namedview
     id="namedview1"
     pagecolor="#ffffff"
     bordercolor="#000000"
     borderopacity="0.25"
     inkscape:showpageshadow="2"
     inkscape:pageopacity="0.0"
     inkscape:pagecheckerboard="0"
     inkscape:deskcolor="#d1d1d1"
     inkscape:zoom="2"
     inkscape:cx="236.5"
     inkscape:cy="255.75"
     inkscape:window-width="2560"
     inkscape:window-height="1351"
     inkscape:window-x="1911"
     inkscape:window-y="-9"
     inkscape:window-maximized="1"
     inkscape:current-layer="svg1" />
  <!--!Font Awesome Free 6.6.0 by @fontawesome - https://fontawesome.com License - https://fontawesome.com/license/free Copyright 2024 Fonticons, Inc.-->
  <path
     d="m 256,512 a 256,256 0 1 0 0,-512 256,256 0 1 0 0,512 z M 369,209 241,337 c -9.4,9.4 -24.6,9.4 -33.9,0 l -64,-64 c -9.4,-9.4 -9.4,-24.6 0,-33.9 9.4,-9.3 24.6,-9.4 33.9,0 l 47,47 L 335,175 c 9.4,-9.4 24.6,-9.4 33.9,0 9.3,9.4 9.4,24.6 0,33.9 z"
     id="path1"
     style="fill:#00ff00" />
  <path
     style="fill:#68e468;fill-opacity:1"
     d="M 242.71592,511.49367 C 218.08923,509.89949 197.54486,505.94692 175.16974,498.49829 125.88561,482.09172 83.108592,451.34408 51.718435,409.76287 17.309264,364.18248 -0.9873406,307.44907 0.38700135,250.59631 0.66661405,239.0295 1.0018275,234.35434 2.2919636,224.02814 12.87073,139.35617 65.747739,64.950766 142.29727,27.020937 191.04619,2.8661442 245.23359,-5.171744 298.55409,3.84258 c 64.82995,10.960102 123.10355,46.594045 162.35308,99.27791 28.28069,37.96056 44.80383,80.90152 49.81594,129.4635 1.07466,10.41198 1.07466,36.42004 0,46.83202 -3.34412,32.40117 -11.56143,61.4515 -25.28411,89.3861 -24.69205,50.26428 -65.61319,91.34125 -115.73627,116.17694 -28.32931,14.037 -57.74877,22.44708 -89.83642,25.68133 -6.64936,0.67024 -31.17242,1.22029 -37.15039,0.83329 z M 232.30446,342.75742 c 1.70378,-0.62117 4.13545,-1.84659 5.4037,-2.72315 1.26825,-0.87656 31.90696,-31.23733 68.08601,-67.46836 61.79826,-61.88706 65.88157,-66.07204 67.45643,-69.13608 2.80388,-5.45518 3.54089,-10.68664 2.31835,-16.4561 -0.97393,-4.59625 -3.16971,-8.64993 -6.54169,-12.07675 -7.68348,-7.80845 -19.73239,-9.33303 -29.58595,-3.74359 -1.44865,0.82175 -20.78675,19.82786 -58.67855,57.67115 -31.08479,31.04501 -56.62702,56.44547 -56.76051,56.44547 -0.1335,0 -11.27867,-10.99314 -24.76707,-24.4292 -26.16324,-26.06174 -26.39082,-26.25762 -32.5832,-28.04533 -3.49207,-1.00814 -9.64839,-1.00825 -13.11587,-2.3e-4 -8.8659,2.57739 -15.19724,9.32652 -17.12156,18.25136 -1.16912,5.42227 -0.47239,10.72688 2.11661,16.11511 1.3423,2.79361 4.03449,5.6129 35.48178,37.15699 18.84907,18.90708 35.11406,34.85751 36.46102,35.75586 2.57934,1.72028 5.86061,3.1174 8.82595,3.75799 3.21701,0.69496 9.59596,0.16758 13.00455,-1.07514 z"
     id="path2" />
  <path
     style="fill:#00ff00;stroke-width:0.450308"
     d="M 236.41161,510.86959 C 214.26129,508.66588 200.00738,505.87919 180.79859,499.997 114.86298,479.80601 59.268395,433.01626 28.393443,371.72911 13.699415,342.56129 5.4615099,314.68197 1.7816494,281.66755 0.79145802,272.78389 0.40279535,248.54763 1.0918779,238.65471 4.1014144,195.44783 18.199504,153.34337 41.891718,116.80452 50.233788,103.93913 61.159075,90.188791 71.369454,79.704485 94.262992,56.196746 115.50995,40.640234 143.6482,26.783745 171.0123,13.308476 199.11144,5.1853253 230.33245,1.7242853 241.91502,0.44028693 271.9831,0.56763091 283.46878,1.9493276 325.25931,6.9766205 362.0136,20.196661 396.04573,42.441789 c 33.32939,21.785774 61.89855,52.200443 81.90357,87.194381 17.40458,30.44511 27.66448,62.40432 32.32665,100.69628 1.01153,8.30777 1.15972,41.25122 0.22286,49.53386 -3.21169,28.39335 -9.69711,53.50342 -19.91261,77.09662 -36.93286,85.2983 -115.77187,143.13719 -208.91865,153.26952 -7.25681,0.78939 -39.20484,1.23916 -45.25594,0.63714 z m -3.7178,-168.07612 c 1.67025,-0.61666 4.19528,-2.00801 5.61119,-3.0919 3.03026,-2.31969 122.38904,-121.5304 129.49646,-129.33581 2.66934,-2.93149 5.33938,-6.28911 5.93341,-7.46138 3.50196,-6.91078 3.30741,-15.36062 -0.52181,-22.66485 -1.91593,-3.65463 -6.56956,-8.24016 -10.09697,-9.94924 -7.01501,-3.39884 -15.37505,-3.40391 -22.37332,-0.0136 -2.72518,1.32023 -16.57134,14.84082 -79.42058,77.55315 l -37.23189,37.15079 -22.65905,-22.30232 c -12.46247,-12.26628 -23.97445,-23.46845 -25.58218,-24.89372 -5.03921,-4.46734 -8.64504,-5.79722 -15.76464,-5.81421 -3.7376,-0.009 -5.35944,0.20151 -7.74099,1.0044 -14.05657,4.73883 -20.52138,20.44056 -14.04896,34.12212 0.94735,2.00254 4.64722,6.0285 19.52136,21.24192 26.30387,26.90384 51.93241,51.81078 54.74275,53.20139 4.84833,2.39904 6.39087,2.72847 11.91986,2.54566 4.10857,-0.13585 5.806,-0.40289 8.21536,-1.29244 z"
     id="path3" />
  <path
     style="fill:#00ff00;stroke-width:0.450308"
     d="m 238.66315,511.05593 c -0.99068,-0.10285 -4.94213,-0.5079 -8.781,-0.89999 C 190.08331,506.09066 149.83123,491.74975 115.95427,469.56592 83.742315,448.47246 56.491135,419.99102 36.346354,386.36412 31.706942,378.61973 23.365953,361.97311 19.875205,353.49164 10.668645,331.12249 4.5821748,306.96697 1.7776688,281.66755 0.78955029,272.75374 0.40458537,248.51039 1.0946592,238.65471 1.9671668,226.19349 3.9661534,212.38758 6.5855728,200.73198 16.042531,158.65145 35.995923,119.44455 64.408551,87.11422 68.064244,82.954461 79.895754,71.011662 84.657872,66.674437 121.94839,32.711079 170.20737,10.101936 220.65084,2.9622582 c 12.75419,-1.8052058 17.19049,-2.0617363 35.57431,-2.05709795 14.3135,0.003611 19.53808,0.17177935 25.4424,0.81893635 41.58832,4.5583884 80.04946,18.2517774 114.37818,40.7222784 35.58521,23.292952 64.61211,55.004728 85.21423,93.096285 16.70282,30.88204 27.44901,68.45204 29.67304,103.74041 0.63997,10.15488 0.23213,34.65316 -0.71212,42.77296 -4.98973,42.90802 -18.645,80.80512 -41.51834,115.22494 -24.72917,37.21248 -58.44144,67.05777 -98.26784,86.99605 -27.98308,14.00913 -57.03368,22.50351 -88.76715,25.95543 -5.81146,0.63214 -38.76998,1.2633 -43.0044,0.82348 z m -9.17637,-167.4433 c 6.6739,-1.41463 6.21839,-1.02716 35.96597,-30.59335 36.22186,-36.00097 100.40222,-100.52089 104.18886,-104.74008 4.62187,-5.14981 6.58111,-9.91429 6.57858,-15.99776 -0.003,-6.98166 -2.38951,-12.67257 -7.36502,-17.562 -5.28211,-5.19073 -10.79368,-7.25906 -18.29022,-6.8638 -3.16183,0.16672 -5.1345,0.54876 -7.55962,1.46407 -4.29343,1.62047 -2.35132,-0.23296 -66.43943,63.40586 l -52.60912,52.2403 -9.75851,-9.66003 c -28.10884,-27.82516 -37.9446,-37.35102 -40.53503,-39.25789 -4.0159,-2.95619 -7.60482,-4.01821 -13.57881,-4.01821 -5.68295,0 -9.2003,0.97723 -13.37235,3.71528 -10.43904,6.85098 -13.97829,20.64079 -8.12494,31.65683 1.07742,2.02771 5.7313,7.05658 20.56367,22.22064 23.15413,23.67189 49.90279,49.76445 52.70412,51.41137 5.21865,3.06808 11.19776,3.94257 17.63185,2.57877 z"
     id="path4" />
  <path
     style="fill:#00ff00;stroke-width:0.450308"
     d=""
     id="path5" />
  <path
     style="fill:#00ff00;stroke-width:0.450308"
     d=""
     id="path6" />
  <path
     style="fill:#00ff00;stroke-width:0.00995049"
     d="m 220.07501,282.1611 -3.92048,-3.92049 0.30846,4.5e-4 0.30846,4.6e-4 0.67218,0.66374 c 3.6322,3.58661 6.49776,6.37035 6.55758,6.37035 0.0395,0 2.28857,-2.20545 6.07579,-5.95786 l 1.08713,-1.07714 h 0.34116 0.34115 l -3.92049,3.92049 c -2.15626,2.15628 -3.92273,3.9205 -3.92547,3.9205 -0.003,0 -1.7692,-1.76422 -3.92547,-3.9205 z"
     id="path7" />
  <path
     style="fill:#00ff00;stroke-width:0.019901"
     d="M 204.09453,266.17564 192.04449,254.1256 h 0.21643 0.21642 l 3.84337,3.82774 c 7.80602,7.77429 13.4249,13.35507 17.585,17.46579 0.96868,0.95718 2.00303,1.98018 2.29856,2.27334 l 0.53733,0.53301 -0.29852,10e-5 -0.29852,1.1e-4 z"
     id="path8" />
  <path
     style="fill:#00ff00;stroke-width:0.00995049"
     d="m 188.52698,250.61307 -3.50754,-3.50755 h 0.18422 0.18421 l 0.48744,0.47968 c 1.48496,1.4613 6.0335,5.96622 6.49735,6.43504 l 0.0993,0.10038 h -0.21873 -0.21873 z"
     id="path9" />
  <path
     style="fill:#00ff00;stroke-width:0.00390625"
     d="m 183.63867,245.73437 -3.61523,-3.61523 h 0.11566 0.11565 l 0.23395,0.22341 c 1.23406,1.17846 2.73748,2.63747 4.55335,4.41886 l 0.34674,0.34015 -0.18654,0.001 -0.18654,10e-4 1.123,1.12301 c 0.61765,0.61766 1.12125,1.12301 1.1191,1.12301 -0.002,0 -1.63076,-1.62686 -3.61914,-3.61524 z"
     id="path10" />
  <path
     style="fill:#00ff00;stroke-width:0.00390625"
     d="m 178.48242,240.57812 c -0.84755,-0.84755 -1.53964,-1.54101 -1.53796,-1.54101 0.0114,0 1.08748,0.98877 1.74499,1.60334 0.4913,0.45921 1.5625,1.47198 1.5625,1.47727 0,7.8e-4 -0.0514,0.001 -0.11426,0.001 h -0.11426 z"
     id="path11" />
  <path
     style="fill:#00ff00;stroke-width:0.00552427"
     d="m 173.99246,236.52373 c -1.38034,-1.00137 -2.96507,-1.89061 -4.59343,-2.57751 -2.74643,-1.15856 -5.74458,-1.79467 -8.7463,-1.8557 l -0.18645,-0.004 v -0.0212 -0.0212 l 0.0566,5e-5 c 0.0827,6e-5 0.49908,0.01 0.69744,0.0165 2.06535,0.0688 3.95325,0.32117 5.35539,0.71603 0.87154,0.24544 1.74997,0.51731 2.27363,0.70369 1.68426,0.59946 3.03904,1.38077 4.86964,2.80837 0.1602,0.12493 0.40327,0.31874 0.40327,0.32154 0,0.006 -0.0173,-0.005 -0.12982,-0.0868 z"
     id="path12" />
  <path
     style="fill:#68e468;fill-opacity:1;stroke-width:0.00390625"
     d="m 140.11914,242.35174 c 0,-0.003 0.16056,-0.23382 0.25118,-0.3611 0.46189,-0.64879 0.93662,-1.24958 1.46339,-1.85197 0.81448,-0.93141 1.74102,-1.83287 2.68777,-2.61503 0.0569,-0.047 0.11231,-0.0928 0.12305,-0.10178 0.0824,-0.0686 0.34954,-0.28098 0.50391,-0.40055 0.86478,-0.66986 1.86969,-1.3397 2.81188,-1.87431 l 0.0423,-0.024 0.19388,0.001 0.19389,0.001 -0.0624,0.0348 c -0.11831,0.0659 -0.33622,0.1912 -0.47842,0.27499 -1.85244,1.09155 -3.56882,2.44146 -5.07953,3.99501 -0.85978,0.88415 -1.6358,1.81511 -2.34922,2.81827 l -0.0736,0.10351 -0.11405,10e-4 c -0.0627,5.7e-4 -0.11405,1.8e-4 -0.11405,-8.6e-4 z"
     id="path13" />
  <path
     style="fill:#68e468;fill-opacity:1;stroke-width:0.707107"
     d="M 237.94143,511.10722 C 137.74202,503.62958 51.429559,438.87621 16.271922,344.80624 -22.033811,242.31301 10.264337,125.63954 96.026182,56.702823 165.33916,0.98796004 259.45436,-14.694776 342.92314,15.561541 421.89104,44.18635 482.74137,110.97723 503.3279,191.62594 c 6.23263,24.41658 7.8455,37.64495 7.8455,64.34671 0,23.59917 -0.66428,30.57596 -4.9148,51.6188 -21.19205,104.91446 -107.07314,185.80889 -213.86995,201.45164 -15.09468,2.21095 -39.88592,3.1508 -54.44722,2.06413 z m -2.8636,-169.6046 c 2.98288,-1.61868 18.65136,-16.88644 69.32447,-67.55151 36.0088,-36.00307 66.49618,-67.00856 67.74972,-68.90107 4.21428,-6.3624 5.01888,-14.37601 2.19991,-21.91039 -2.16733,-5.79272 -7.92078,-11.5497 -13.73268,-13.74113 -5.57688,-2.10281 -13.78356,-1.81098 -19.08668,0.67869 -2.84813,1.33713 -14.63969,12.7304 -60.64824,58.59969 l -57.11271,56.93985 -24.91168,-24.86357 c -28.45349,-28.39857 -28.69844,-28.58025 -38.53324,-28.58025 -10.02061,0 -17.30616,4.18335 -21.57947,12.39092 -2.09744,4.02845 -2.25908,4.8419 -2.26704,11.4088 -0.007,6.07971 0.23418,7.56675 1.72295,10.60661 1.31024,2.67529 8.79428,10.65554 30.75915,32.79852 33.45319,33.72446 42.20502,41.90784 46.50878,43.48792 2.11069,0.77491 4.94832,1.05279 9.38889,0.91942 5.50254,-0.16527 6.88562,-0.47422 10.21787,-2.2825 z"
     id="path14" />
  <path
     style="fill:#68e468;fill-opacity:1;stroke-width:0.0220971"
     d="m 212.2867,274.36744 c -11.60843,-11.60945 -11.71063,-11.71242 -11.61914,-11.70592 0.0912,0.006 0.23217,0.14612 11.58532,11.47494 6.32116,6.30761 11.5057,11.46839 11.52119,11.46839 0.0155,0 5.2068,-5.16326 11.53623,-11.47391 l 11.50804,-11.47392 h 0.28755 0.28755 l -7.91211,7.92733 c -4.35167,4.36003 -9.61561,9.63019 -11.69766,11.71145 l -3.78553,3.78412 z"
     id="path15" />
  <path
     style="fill:#68e468;fill-opacity:1;stroke-width:0.00390625"
     d="m 224.4043,277.25781 v -3.61523 h 5.68652 5.68652 l -0.43164,0.43148 c -0.2374,0.23732 -1.86865,1.86412 -3.625,3.61512 l -3.19336,3.18364 -2.06152,1.1e-4 -2.06152,1.2e-4 z"
     id="path16" />
  <path
     style="fill:#68e468;fill-opacity:1;stroke-width:0.00390625"
     d="m 228.91799,280.48999 c 0.65845,-0.66008 6.86707,-6.84579 6.87212,-6.84674 0.008,-0.001 -0.2453,0.2516 -1.9112,1.91171 -1.10013,1.09631 -1.74806,1.74183 -4.1587,4.1433 -0.49763,0.49574 -0.90631,0.90135 -0.90817,0.90135 -0.002,0 0.0458,-0.0493 0.10595,-0.10962 z"
     id="path17" />
  <path
     style="fill:#68e468;fill-opacity:1;stroke-width:0.00390625"
     d="m 228.88672,280.53396 c 0.18691,-0.18649 0.75381,-0.75121 1.25976,-1.25493 1.078,-1.07323 3.79138,-3.77674 4.8896,-4.8718 l 0.76685,-0.76465 h 0.31119 0.3112 l -0.87483,0.87597 c -0.48115,0.48179 -2.10599,2.10865 -3.61076,3.61524 l -2.73594,2.73926 -0.32846,-10e-6 -0.32846,-10e-6 z"
     id="path18" />
  <path
     style="fill:#68e468;fill-opacity:1;stroke-width:0.00390625"
     d=""
     id="path19" />
  <path
     style="fill:#68e468;fill-opacity:1;stroke-width:0.00390625"
     d="m 228.91602,280.50486 c 0.20302,-0.2025 0.58447,-0.5826 0.84765,-0.84467 2.23504,-2.22557 4.26661,-4.25006 5.3909,-5.37213 l 0.64677,-0.64548 h 0.31219 0.3122 l -0.70904,0.70996 c -2.83226,2.83592 -3.98362,3.98862 -5.16391,5.16992 l -1.34943,1.35059 -0.32824,-10e-6 h -0.32824 z"
     id="path20" />
  <path
     style="fill:#68e468;fill-opacity:1;stroke-width:0.00390625"
     d="m 224.4043,277.25781 v -3.61523 l 5.68652,3e-5 5.68652,4e-5 -0.68164,0.68095 c -0.3749,0.37453 -2.00615,2.00135 -3.625,3.61516 l -2.94336,2.93421 -2.06152,4e-5 -2.06152,4e-5 z"
     id="path21" />
  <path
     style="fill:#68e468;fill-opacity:1;stroke-width:0.0441942"
     d="m 249.91809,259.58134 c 1.67715,-1.67339 9.75141,-9.72157 17.9428,-17.88484 32.79771,-32.68512 28.65287,-28.5803 28.84087,-28.56236 0.14704,0.014 -0.4183,0.5835 -24.57245,24.75205 l -24.72295,24.73769 h -0.26881 -0.26882 z"
     id="path22" />
  <path
     style="fill:#68e468;fill-opacity:1"
     d="m 297.32803,212.30759 c 0.50173,-0.50012 0.91384,-0.90993 1.89854,-1.88794 1.91842,-1.90539 2.60144,-2.58349 3.58593,-3.56007 0.56074,-0.55624 1.11975,-1.11123 1.24223,-1.23331 l 0.2227,-0.22197 h 0.17133 0.17132 l -3.61231,3.61523 -3.6123,3.61524 h -0.19784 -0.19783 z"
     id="path23" />
  <path
     style="fill:#68e468;fill-opacity:1;stroke-width:0.00390625"
     d="m 295.13086,209.01953 v -3.61523 h 4.57128 4.57127 l -0.0742,0.0736 c -0.0408,0.0405 -0.29833,0.29585 -0.57226,0.56747 -0.70338,0.69745 -1.96793,1.95243 -2.63476,2.6148 -1.42331,1.4138 -2.96823,2.94872 -3.46078,3.43838 l -0.53922,0.53606 -0.93067,7e-5 -0.93066,8e-5 z"
     id="path24" />
  <path
     style="fill:#68e468;fill-opacity:1;stroke-width:0.00390625"
     d="m 295.13086,209.01953 v -3.61523 h 4.57128 4.57128 l -0.0879,0.0872 c -0.14573,0.14464 -0.57416,0.5696 -1.3789,1.36771 -0.42002,0.41656 -0.88584,0.87879 -1.03516,1.02717 -0.14931,0.14839 -0.39716,0.3946 -0.55078,0.54715 -0.15361,0.15255 -0.40586,0.40304 -0.56054,0.55666 -0.15469,0.15361 -0.41133,0.40863 -0.57032,0.56671 -0.15898,0.15809 -0.69423,0.6899 -1.18945,1.1818 -0.49521,0.49191 -1.12715,1.11975 -1.4043,1.39519 l -0.5039,0.50082 -0.93067,2e-5 -0.93066,2e-5 z"
     id="path25" />
  <path
     style="fill:#68e468;fill-opacity:1;stroke-width:0.00390625"
     d="m 295.13086,209.01953 v -3.61523 l 4.57129,4e-5 4.57129,5e-5 -0.13672,0.13577 c -0.0752,0.0747 -0.35381,0.35105 -0.61914,0.61417 -0.83024,0.82331 -1.48393,1.47187 -1.76172,1.74788 -0.14717,0.14622 -0.3959,0.39328 -0.55274,0.54901 -0.49532,0.49185 -0.8538,0.84795 -1.16211,1.15442 -0.16435,0.16337 -0.56513,0.56145 -0.89062,0.88461 -0.32549,0.32317 -0.73594,0.7309 -0.91211,0.90608 -0.48004,0.47735 -0.93106,0.92564 -1.09766,1.09102 l -0.14843,0.14736 -0.93067,3e-5 -0.93066,3e-5 z"
     id="path26" />
  <path
     style="fill:#68e468;fill-opacity:1;stroke-width:0.00390625"
     d="m 295.13086,209.01953 v -3.61523 l 4.57129,3e-5 4.57129,3e-5 -0.15235,0.15127 c -0.50875,0.50517 -0.68256,0.67764 -1.13281,1.12403 -0.275,0.27264 -0.61602,0.61094 -0.75781,0.75178 -0.1418,0.14083 -0.37999,0.37733 -0.5293,0.52555 -0.33314,0.33069 -0.99584,0.98887 -1.71875,1.70701 -0.15791,0.15687 -0.42158,0.4188 -0.58594,0.58207 -0.16435,0.16326 -0.43418,0.43141 -0.59961,0.59588 -0.26946,0.26791 -1.38048,1.37157 -1.68562,1.67447 l -0.11923,0.11835 h -0.93058 -0.93058 z"
     id="path27" />
  <path
     style="fill:#68e468;fill-opacity:1;stroke-width:0.00390625"
     d="m 295.13086,209.01953 v -3.61523 l 4.57129,2e-5 4.57129,3e-5 -0.16797,0.1669 c -0.38255,0.38011 -0.67101,0.66637 -1.14453,1.13579 -0.275,0.27262 -0.61601,0.6109 -0.7578,0.75174 -0.14179,0.14083 -0.38261,0.37999 -0.53515,0.53145 -0.83958,0.83368 -1.36141,1.35201 -1.71682,1.70531 -0.16006,0.15912 -0.56435,0.56068 -0.89844,0.89237 -0.33408,0.33169 -0.74013,0.73504 -0.90234,0.89635 -0.66907,0.66534 -0.96813,0.96252 -1.06055,1.05388 l -0.0976,0.0965 -0.93067,4e-5 -0.93066,5e-5 z"
     id="path28" />
  <path
     style="fill:#68e468;fill-opacity:1;stroke-width:0.00390625"
     d="m 297.43377,212.20593 c 0.73611,-0.73393 2.45418,-2.44086 4.94501,-4.91297 0.56282,-0.55859 1.22112,-1.21202 1.46289,-1.45208 l 0.43958,-0.43646 0.16797,-6e-5 0.16796,-6e-5 -1.2246,1.22558 c -0.67354,0.67408 -2.29951,2.30093 -3.61328,3.61524 l -2.38867,2.38965 -0.19336,-1.3e-4 -0.19336,-1.3e-4 z"
     id="path29" />
  <path
     style="fill:#68e468;fill-opacity:1;stroke-width:0.00390625"
     d="m 295.13086,209.01953 v -3.61523 l 4.57129,3e-5 4.57129,4e-5 -0.1836,0.18251 c -0.1715,0.17048 -0.27642,0.27462 -0.92578,0.91887 -0.66546,0.66022 -1.20722,1.1979 -1.54297,1.53133 -0.15254,0.15149 -0.40833,0.40551 -0.56842,0.56449 -0.53648,0.53275 -0.87483,0.86881 -1.16205,1.15419 -0.15683,0.15583 -0.41962,0.41691 -0.58398,0.58018 -0.16435,0.16326 -0.43418,0.43141 -0.59961,0.59588 -0.51788,0.51487 -1.52307,1.51328 -1.62109,1.61014 l -0.0937,0.0927 -0.93067,8e-5 -0.93066,8e-5 z"
     id="path30" />
  <path
     style="fill:#68e468;fill-opacity:1;stroke-width:0.00390625"
     d="m 304.53656,205.14918 c 0.40541,-0.40349 3.59739,-3.56589 3.70401,-3.66969 l 0.0411,-0.04 h 0.14968 0.14969 l -1.97985,1.98145 -1.97984,1.98144 -0.17062,0.001 -0.17062,0.001 z"
     id="path31" />
  <path
     style="fill:#68e468;fill-opacity:1;stroke-width:0.00390625"
     d="m 308.2832,201.43796 c 0,-0.002 0.95983,-0.95191 2.12696,-2.10593 0.38671,-0.38238 0.79332,-0.78446 0.90357,-0.89351 l 0.20045,-0.19829 h 0.13093 0.13093 l -1.597,1.5996 -1.59701,1.59959 -0.14941,2e-5 c -0.0822,1e-5 -0.14942,-6.6e-4 -0.14942,-10e-4 z"
     id="path32" />
  <path
     style="fill:#68e468;fill-opacity:1;stroke-width:0.00390625"
     d="m 304.54027,205.14951 c 0.58711,-0.58381 0.81264,-0.80761 1.4656,-1.45442 0.71404,-0.70732 1.71198,-1.6955 2.05601,-2.03593 l 0.22205,-0.21971 0.0592,-8.1e-4 0.0592,-8.1e-4 -0.0563,-0.002 -0.0563,-0.002 0.55235,-0.54696 c 0.3038,-0.30084 0.87404,-0.86509 1.2672,-1.25389 0.39317,-0.38881 0.87042,-0.86111 1.06055,-1.04955 l 0.3457,-0.34262 0.12891,-1.7e-4 0.1289,-1.7e-4 -0.59419,0.59473 c -0.3268,0.3271 -1.93571,1.9377 -3.57535,3.5791 l -2.98116,2.98438 -0.15512,0.002 -0.15511,0.002 0.15226,9.1e-4 0.15225,9.1e-4 -0.033,0.0332 -0.033,0.0332 h -0.16685 -0.16685 z"
     id="path33" />
  <path
     style="fill:#68e468;fill-opacity:1;stroke-width:0.00390625"
     d="m 302.16211,201.85547 v -3.61524 h 4.67187 c 2.56954,0 4.67188,5.6e-4 4.67188,0.001 0,6.7e-4 -0.12348,0.12328 -0.27441,0.27246 -2.09264,2.06848 -6.01173,5.94909 -6.82933,6.7623 l -0.19553,0.19448 h -1.02224 -1.02224 z"
     id="path34" />
  <path
     style="fill:#68e468;fill-opacity:1;stroke-width:0.00390625"
     d="m 307.74219,201.9668 c 0.001,-0.002 0.004,-0.004 0.006,-0.004 0.002,0 0.003,0.002 10e-4,0.004 -10e-4,0.002 -0.004,0.004 -0.006,0.004 -0.002,0 -0.003,-0.002 -0.001,-0.004 z"
     id="path35" />
  <path
     style="fill:#68e468;fill-opacity:1;stroke-width:0.00390625"
     d="m 302.16211,201.85547 v -3.61524 l 4.67285,7e-5 4.67285,6e-5 -0.12304,0.12211 c -0.0677,0.0672 -0.5168,0.51138 -0.99805,0.98715 -1.06141,1.04933 -2.31188,2.28646 -2.59377,2.56608 -0.11388,0.11297 -0.29846,0.29592 -0.41018,0.40657 -0.9906,0.98106 -1.1935,1.18211 -1.70113,1.68562 -0.11494,0.114 -0.41201,0.40844 -0.66016,0.65429 -0.24814,0.24585 -0.53291,0.52833 -0.63281,0.62772 l -0.18164,0.18071 -1.02246,5e-5 -1.02246,4e-5 z"
     id="path36" />
  <path
     style="fill:#68e468;fill-opacity:1;stroke-width:0.00390625"
     d="m 302.16211,201.85547 v -3.61524 l 4.67285,2e-5 4.67285,2e-5 -0.12695,0.12613 c -0.0698,0.0694 -0.28252,0.27987 -0.47265,0.46776 -0.67024,0.66235 -1.0664,1.054 -1.2461,1.23195 -0.0999,0.0989 -0.2625,0.25988 -0.36133,0.35767 -0.0988,0.0978 -0.26758,0.26478 -0.375,0.37108 -0.18433,0.1824 -0.31026,0.30705 -0.76565,0.75783 -0.35311,0.34955 -0.63513,0.62885 -1.21286,1.20118 -0.50203,0.49732 -0.64142,0.63546 -0.85157,0.84392 -0.12353,0.12253 -0.42412,0.42039 -0.66797,0.66189 -0.41708,0.41308 -0.69934,0.69304 -1.06445,1.05577 l -0.15625,0.15523 -1.02246,1e-5 -1.02246,1e-5 z"
     id="path37" />
  <path
     style="fill:#68e468;fill-opacity:1;stroke-width:0.00390625"
     d="m 304.5519,205.13784 c 0.63784,-0.63412 0.83292,-0.82775 1.2606,-1.25117 0.23633,-0.23398 0.52461,-0.51968 0.64062,-0.63488 0.11602,-0.11521 0.47989,-0.47562 0.8086,-0.80091 0.32871,-0.32529 0.69305,-0.68594 0.80965,-0.80143 l 0.212,-0.21 0.0478,-7.8e-4 0.0478,-7.8e-4 -0.044,-0.002 -0.044,-0.002 0.1866,-0.18552 c 0.29346,-0.29177 0.55612,-0.55196 0.94637,-0.9375 0.19873,-0.19633 0.44306,-0.43805 0.54297,-0.53717 0.0999,-0.0991 0.42158,-0.41726 0.71484,-0.707 0.29326,-0.28973 0.60088,-0.59414 0.68359,-0.67646 l 0.15039,-0.14968 0.12886,-10e-6 0.12885,-2e-5 -0.61127,0.61231 c -0.33621,0.33676 -1.49988,1.50176 -2.58594,2.58887 -1.08606,1.08711 -2.42021,2.4226 -2.96477,2.96777 l -0.9901,0.99121 -0.13289,9.2e-4 -0.13289,9.2e-4 0.13072,10e-4 0.13072,0.001 -0.033,0.0331 -0.033,0.0332 h -0.16694 -0.16693 z"
     id="path38" />
  <path
     style="fill:#68e468;fill-opacity:1;stroke-width:0.00390625"
     d="m 302.16211,201.85547 v -3.61524 l 4.67285,2e-5 4.67285,1e-5 -0.15625,0.15546 c -0.0859,0.0855 -0.3083,0.30559 -0.49414,0.48908 -0.18584,0.1835 -0.41699,0.41196 -0.51367,0.5077 -0.0967,0.0957 -0.2584,0.25576 -0.35938,0.35561 -0.10097,0.0999 -0.26357,0.26068 -0.36132,0.3574 -0.0978,0.0967 -0.2621,0.25933 -0.36522,0.36135 -0.18607,0.18409 -0.40357,0.39933 -0.7676,0.75964 -0.10419,0.10314 -0.27558,0.27288 -0.38086,0.3772 -0.10527,0.10432 -0.37685,0.37319 -0.60351,0.59749 -0.22666,0.22429 -0.50615,0.50105 -0.62109,0.61501 -0.11495,0.11396 -0.30303,0.30039 -0.41797,0.4143 -0.51877,0.5141 -0.66452,0.65858 -0.87302,0.86543 -0.28147,0.27925 -1.06958,1.06049 -1.25003,1.23914 l -0.13672,0.13535 -1.02246,1.4e-4 -1.02246,1.4e-4 z"
     id="path39" />
  <path
     style="fill:#68e468;fill-opacity:1;stroke-width:0.00390625"
     d="m 302.16211,201.85547 v -3.61524 l 4.67285,2e-5 4.67285,1e-5 -0.15625,0.15526 c -0.0859,0.0854 -0.23492,0.23303 -0.33107,0.32809 -0.36562,0.36144 -0.5301,0.52413 -0.70408,0.69642 -0.0988,0.0979 -0.33789,0.33422 -0.53125,0.52524 -0.19336,0.19101 -0.4333,0.42835 -0.53321,0.52741 -0.0999,0.0991 -0.35654,0.35314 -0.57031,0.56462 -0.67087,0.66369 -1.16241,1.15023 -1.37695,1.36294 -0.11387,0.1129 -0.30196,0.29929 -0.41797,0.41421 -0.11602,0.11492 -0.30498,0.30216 -0.41992,0.41608 -0.11494,0.11392 -0.31093,0.30817 -0.43553,0.43166 -0.60821,0.60281 -0.99545,0.98669 -1.36136,1.34956 -0.13214,0.13104 -0.29034,0.2879 -0.35156,0.34858 l -0.11132,0.11034 -1.02246,2e-5 -1.02246,1e-5 z"
     id="path40" />
  <path
     style="fill:#68e468;fill-opacity:1;stroke-width:0.00390625"
     d="m 304.55955,205.13001 c 0.45053,-0.44777 0.79777,-0.79251 1.05956,-1.05195 0.5869,-0.58162 0.83264,-0.82511 1.28126,-1.2695 0.11281,-0.11174 0.29826,-0.29552 0.41213,-0.4084 0.42621,-0.42251 0.93428,-0.92462 0.95353,-0.94235 0.0198,-0.0182 0.0202,-0.0184 0.0488,-0.019 l 0.0289,-6.9e-4 -0.0265,-0.002 -0.0265,-0.002 0.19641,-0.19525 c 0.30264,-0.30085 0.55795,-0.55379 0.95227,-0.94341 0.34315,-0.33906 0.45898,-0.45366 0.89649,-0.88701 0.10312,-0.10214 0.34834,-0.3446 0.54492,-0.5388 0.19658,-0.1942 0.41982,-0.41514 0.49609,-0.49097 l 0.13867,-0.13789 0.12888,-1e-5 0.12887,-2e-5 -0.53121,0.53223 c -0.54978,0.55083 -3.46417,3.46836 -5.47261,5.47852 l -1.14844,1.14941 -0.10157,9.1e-4 -0.10157,9e-4 0.0994,0.001 0.0995,0.001 -0.033,0.0331 -0.033,0.0331 h -0.1671 -0.16709 z"
     id="path41" />
  <path
     style="fill:#68e468;fill-opacity:1;stroke-width:0.00390625"
     d="m 306.50773,203.19819 c 0.11176,-0.11121 0.29813,-0.29624 0.41414,-0.41117 0.11602,-0.11494 0.30262,-0.30016 0.41466,-0.4116 0.11205,-0.11143 0.20582,-0.20391 0.20838,-0.20549 0.003,-0.002 0.0893,-0.0871 0.19276,-0.18997 0.10346,-0.10291 0.26835,-0.26662 0.36642,-0.3638 l 0.17831,-0.17671 0.0248,-6.3e-4 0.0248,-6.4e-4 -0.0206,-0.002 -0.0206,-0.002 0.20032,-0.19924 c 0.11018,-0.10958 0.29085,-0.28886 0.4015,-0.3984 0.11064,-0.10953 0.28379,-0.28098 0.38476,-0.38099 0.10098,-0.10001 0.34532,-0.34164 0.54297,-0.53695 0.3347,-0.33072 0.47804,-0.47257 0.87891,-0.86976 0.0859,-0.0851 0.30478,-0.30172 0.48633,-0.48126 l 0.33007,-0.32645 0.12888,-1.5e-4 0.12888,-1.6e-4 -0.38864,0.38961 c -0.21376,0.21429 -1.19825,1.19998 -2.18777,2.19043 -0.98952,0.99045 -1.97377,1.97617 -2.18722,2.19047 l -0.3881,0.38965 h -0.15857 -0.15857 z"
     id="path42" />
  <path
     style="fill:#68e468;fill-opacity:1;stroke-width:0.00390625"
     d="m 306.51924,203.18652 c 0.11833,-0.11762 0.31269,-0.31055 0.43193,-0.42873 0.20243,-0.20063 0.30081,-0.29805 0.80666,-0.79875 0.10741,-0.10632 0.26917,-0.26672 0.35946,-0.35645 l 0.16417,-0.16314 0.0194,-5.5e-4 c 0.0188,-5.4e-4 0.0189,-6.3e-4 0.005,-0.003 l -0.0147,-0.002 0.20612,-0.20509 c 0.20133,-0.20033 0.43124,-0.42824 0.79795,-0.791 0.44983,-0.44499 0.81575,-0.80705 1.09959,-1.088 0.0988,-0.0978 0.33875,-0.33508 0.53318,-0.52726 0.19444,-0.19219 0.40625,-0.40173 0.47071,-0.46566 l 0.11718,-0.11624 0.12888,-5e-5 0.12887,-6e-5 -0.29293,0.29395 c -0.16112,0.16167 -1.03919,1.04102 -1.95128,1.9541 -0.91209,0.91309 -1.93946,1.94185 -2.28306,2.28613 l -0.62472,0.62598 h -0.15863 -0.15864 z"
     id="path43" />
  <path
     style="fill:#68e468;fill-opacity:1;stroke-width:0.00390625"
     d="m 311.65625,198.1004 c 0.27853,-0.27661 2.625,-2.59214 3.71094,-3.662 l 0.33593,-0.33096 0.10156,-1e-5 0.10156,-1e-5 -0.98437,0.98535 c -0.5414,0.54195 -1.4704,1.47183 -2.06445,2.06641 l -1.08007,1.08105 -0.13086,-9e-5 -0.13087,-9e-5 z"
     id="path44" />
  <path
     style="fill:#68e468;fill-opacity:1;stroke-width:0.00390625"
     d=""
     id="path45" />
  <path
     style="fill:#68e468;fill-opacity:1;stroke-width:0.00390625"
     d="m 315.77539,194.03598 c 0.66888,-0.65924 2.4562,-2.4165 3.31641,-3.26064 0.34912,-0.3426 0.71738,-0.70416 0.81836,-0.80348 l 0.18359,-0.18057 0.0625,-1.4e-4 0.0625,-1.3e-4 -0.97265,0.97363 c -0.53496,0.5355 -1.50527,1.50669 -2.15624,2.1582 l -1.1836,1.18457 -0.10156,-1.1e-4 -0.10157,-1.1e-4 z"
     id="path46" />
  <path
     style="fill:#68e468;fill-opacity:1;stroke-width:0.00390625"
     d="m 320.10167,189.7838 c 0.004,-0.004 0.10263,-0.10023 0.21864,-0.21391 1.31044,-1.28406 2.74223,-2.68293 3.84571,-3.75729 0.28682,-0.27925 0.58437,-0.56909 0.66123,-0.64411 0.0769,-0.075 0.1404,-0.1357 0.1412,-0.13486 8e-4,8.4e-4 -1.06756,1.07167 -2.37413,2.37962 l -2.37557,2.37809 -0.0624,-1.6e-4 c -0.0609,-1.6e-4 -0.0622,-3.4e-4 -0.0547,-0.007 z"
     id="path47" />
  <path
     style="fill:#68e468;fill-opacity:1;stroke-width:0.00390625"
     d="m 339.73633,171.30504 c 0,-8.9e-4 0.0479,-0.0392 0.10644,-0.0852 0.52309,-0.4108 0.96352,-0.72451 1.31348,-0.93557 0.20621,-0.12437 0.33441,-0.18905 0.67969,-0.34292 1.03995,-0.46347 2.22295,-0.85952 3.47596,-1.16368 0.4233,-0.10276 0.75031,-0.17358 1.26427,-0.27381 0.23925,-0.0467 0.64174,-0.11578 0.95313,-0.16367 0.278,-0.0428 0.61258,-0.0894 0.62663,-0.0875 0.004,6.4e-4 -0.0385,0.009 -0.0954,0.0181 -0.33855,0.0555 -0.75542,0.13454 -1.10547,0.20951 -2.51356,0.53838 -4.91251,1.47233 -7.12571,2.77414 -0.0841,0.0495 -0.093,0.0543 -0.093,0.0505 z"
     id="path48" />
  <path
     style="fill:#68e468;fill-opacity:1;stroke-width:0.0078125"
     d="m 372.02301,178.86914 c -1.0444,-1.62062 -2.39962,-3.23295 -3.84723,-4.57709 -2.15414,-2.00019 -4.6189,-3.56243 -7.33203,-4.64725 -1.52776,-0.61087 -3.12816,-1.06349 -4.76172,-1.3467 -0.10957,-0.019 -0.24141,-0.0411 -0.29297,-0.0491 -0.14465,-0.0225 -0.0792,-0.0218 0.0867,9.6e-4 2.22751,0.3053 4.10859,0.82233 5.81955,1.59953 0.73691,0.33473 1.46503,0.71909 2.1875,1.15472 3.15622,1.9031 6.08875,4.70103 8.20238,7.82589 l 0.12286,0.18164 h -0.0466 -0.0466 z"
     id="path49" />
  <path
     style="fill:#68e468;fill-opacity:1;stroke-width:0.00390625"
     d="m 197.79297,328.0695 c -2.01705,-1.95223 -4.06908,-3.9591 -6.41968,-6.27842 l -0.56422,-0.55671 0.2595,-0.001 0.2595,-10e-4 3.61526,3.61526 3.61526,3.61526 -0.17968,-1e-4 -0.17969,-9e-5 z"
     id="path50" />
  <path
     style="fill:#68e468;fill-opacity:1;stroke-width:0.00390625"
     d="m 219.9707,343.72213 c -0.88847,-0.0692 -1.47503,-0.13814 -2.15429,-0.25333 -0.87197,-0.14786 -1.68982,-0.36016 -2.375,-0.61652 -0.93224,-0.3488 -2.00548,-0.97573 -3.36133,-1.96353 -0.17627,-0.12842 -0.18376,-0.13403 -0.18179,-0.136 8.8e-4,-8.8e-4 0.0206,0.01 0.0438,0.0238 0.11129,0.0668 0.37362,0.21641 0.55787,0.3182 2.29525,1.26807 4.78081,2.14334 7.37891,2.59841 0.0859,0.0151 0.16504,0.029 0.17578,0.031 l 0.0195,0.004 -0.0176,-9e-5 c -0.01,-6e-5 -0.0483,-0.002 -0.0859,-0.005 z"
     id="path51" />
  <path
     style="fill:#68e468;fill-opacity:1;stroke-width:0.0110485"
     d="m 204.16603,334.11637 c -0.12761,-0.11932 -0.48061,-0.44841 -0.78444,-0.73133 -0.30384,-0.28291 -0.64441,-0.60409 -0.75683,-0.71374 -0.11242,-0.10966 -0.50271,-0.48998 -0.86731,-0.84518 -0.78494,-0.76468 -1.37116,-1.33778 -2.46382,-2.40869 -0.4436,-0.43477 -0.84384,-0.82616 -0.88941,-0.86977 l -0.0829,-0.0793 0.11602,-3.5e-4 0.11602,-3.5e-4 2.93337,2.93339 c 1.61336,1.61336 2.92841,2.93313 2.92233,2.93282 -0.006,-3.2e-4 -0.11544,-0.0982 -0.24306,-0.21751 z"
     id="path52" />
  <path
     style="fill:#68e468;fill-opacity:1;stroke-width:0.0110485"
     d="m 189.2505,319.51079 c -2.096,-2.07842 -7.80512,-7.76248 -9.45753,-9.41604 l -1.19323,-1.19405 h 0.19334 0.19333 l 6.16508,6.16509 6.16508,6.16509 -0.16572,-1e-5 -0.16573,-2e-5 z"
     id="path53" />
  <path
     style="fill:#68e468;fill-opacity:1;stroke-width:0.0110485"
     d="m 175.9471,306.24629 c -1.4583,-1.45993 -4.11523,-4.12359 -5.90428,-5.91926 l -3.25281,-3.26484 0.17588,-0.003 0.17589,-0.003 5.92231,5.92231 5.92231,5.92231 h -0.19392 -0.19393 z"
     id="path54" />
  <path
     style="fill:#68e468;fill-opacity:1;stroke-width:0.0110485"
     d="m 163.78211,294.03765 c -1.65173,-1.66046 -3.44579,-3.464 -3.98679,-4.00786 -0.99095,-0.99619 -4.48314,-4.51942 -4.72842,-4.77046 l -0.132,-0.13509 h 0.13752 0.13753 l 5.9662,5.96621 5.96621,5.96621 h -0.17855 -0.17854 z"
     id="path55" />
  <path
     style="fill:#68e468;fill-opacity:1;stroke-width:0.0110485"
     d="m 154.61807,284.80659 c -1.05782,-1.06737 -4.59777,-4.7302 -6.33466,-6.55455 -0.31531,-0.33118 -0.61826,-0.64797 -0.67323,-0.70399 -0.055,-0.056 -0.0975,-0.10429 -0.0945,-0.10727 0.003,-0.003 1.73541,1.72458 3.84984,3.83902 l 3.84443,3.84444 h -0.13853 -0.13853 z"
     id="path56" />
  <path
     style="fill:#68e468;fill-opacity:1;stroke-width:0.0110485"
     d="m 139.52973,268.54311 c -0.32921,-0.42257 -0.64782,-0.86168 -0.87056,-1.19982 -0.0977,-0.14834 -0.15582,-0.25237 -0.2345,-0.41985 -0.60738,-1.2928 -1.11669,-2.6082 -1.49986,-3.87371 -0.0839,-0.277 -0.14269,-0.60248 -0.22154,-1.22591 -0.0211,-0.16658 -0.038,-0.31573 -0.0376,-0.33146 4.2e-4,-0.0157 0.0421,0.13549 0.0926,0.33602 0.61045,2.42356 1.57124,4.70649 2.84975,6.77125 0.0409,0.066 0.0724,0.12193 0.0701,0.12427 -0.002,0.002 -0.0691,-0.079 -0.14841,-0.18079 z"
     id="path57" />
  <path
     style="fill:#68e468;fill-opacity:1;stroke-width:0.00390625"
     d="m 136.63131,250.73577 c -4.3e-4,-0.0134 0.0178,-0.19285 0.0349,-0.34319 0.0247,-0.21749 0.0654,-0.50685 0.10153,-0.72233 0.022,-0.13116 0.0253,-0.14575 0.0641,-0.28125 0.41614,-1.45574 0.94712,-2.83039 1.61646,-4.1849 l 0.0941,-0.19043 h 0.0926 0.0926 l -0.15312,0.30567 c -0.18107,0.36145 -0.25556,0.51676 -0.39862,0.83106 -0.6432,1.41314 -1.15478,2.92057 -1.50731,4.4414 -0.0182,0.0784 -0.0339,0.14609 -0.0349,0.15039 -10e-4,0.004 -0.002,0.002 -0.002,-0.006 z"
     id="path58" />
  <path
     style="fill:#68e468;fill-opacity:1;stroke-width:0.00390625"
     d="m 138.54492,245.01168 c 0,-0.004 0.16473,-0.32084 0.24913,-0.47848 0.36978,-0.69068 0.77027,-1.35656 1.21289,-2.0166 l 0.10936,-0.16308 h 0.11496 0.11495 l -0.0293,0.042 c -0.56678,0.81173 -1.0833,1.65946 -1.5405,2.52832 l -0.0462,0.0879 -0.0926,0.001 c -0.0509,5.7e-4 -0.0926,8e-5 -0.0926,-0.001 z"
     id="path59" />
  <path
     style="fill:#68e468;fill-opacity:1;stroke-width:0.00390625"
     d="m 141.13528,240.80001 c 0.003,-0.01 0.24731,-0.32059 0.38771,-0.49337 1.58857,-1.95485 3.43071,-3.5617 5.51803,-4.81324 0.25718,-0.15421 0.66939,-0.38976 0.674,-0.38515 9.4e-4,9.4e-4 -0.0585,0.0384 -0.13204,0.0832 -1.24892,0.76082 -2.31723,1.53046 -3.33689,2.40395 -1.09761,0.94029 -2.12639,1.99584 -3.0194,3.09795 -0.079,0.0975 -0.0939,0.11494 -0.0914,0.10665 z"
     id="path60" />
  <path
     style="fill:#68e468;fill-opacity:1;stroke-width:0.00390625"
     d="m 141.31836,234.95703 v -3.61523 h 6.17969 6.17968 v 0.7649 0.76489 l -0.0478,0.0108 c -0.6064,0.13722 -1.28881,0.32131 -1.88183,0.50765 -0.15044,0.0473 -0.15622,0.0493 -0.34961,0.12369 -1.10561,0.42516 -2.20185,0.93818 -3.23242,1.5127 -1.54371,0.86058 -2.9785,1.87884 -4.28321,3.03975 -0.14373,0.12789 -0.3101,0.28033 -0.49609,0.45457 l -0.0547,0.0512 -0.0752,1.2e-4 c -0.0414,7e-5 -0.0752,-5.8e-4 -0.0752,-0.001 0,-0.004 0.29369,-0.28165 0.44538,-0.42075 0.82207,-0.75384 1.66601,-1.42772 2.59368,-2.07103 0.45747,-0.31724 1.10571,-0.73277 1.59766,-1.02412 0.16764,-0.0993 0.156,-0.0953 -0.0488,0.0165 -1.67793,0.91646 -3.21275,2.0544 -4.57316,3.3906 l -0.11235,0.11036 h -0.88284 -0.88285 z m 6.63672,0.0153 c 0,-0.001 -0.004,-7e-5 -0.008,0.002 -0.004,0.002 -0.008,0.005 -0.008,0.006 0,0.001 0.004,8e-5 0.008,-0.002 0.004,-0.002 0.008,-0.005 0.008,-0.006 z"
     id="path61" />
  <path
     style="fill:#68e468;fill-opacity:1;stroke-width:0.00390625"
     d=""
     id="path62" />
  <path
     style="fill:#68e468;fill-opacity:1;stroke-width:0.00390625"
     d="m 141.31836,234.95703 v -3.61523 h 6.17969 6.17968 v 0.7649 0.76489 l -0.0478,0.0109 c -0.57398,0.13016 -1.19515,0.29627 -1.77694,0.4752 -0.21016,0.0646 -0.26062,0.0819 -0.43497,0.14888 -2.65543,1.02015 -5.07853,2.45397 -7.17383,4.24498 -0.29263,0.25014 -0.52692,0.46037 -0.85742,0.76941 l -0.0547,0.0511 -0.0762,-4e-5 -0.0762,-4e-5 0.049,-0.0477 c 0.0696,-0.0678 0.23486,-0.22351 0.35142,-0.33109 0.82779,-0.76402 1.70255,-1.4645 2.63867,-2.11297 0.46995,-0.32554 1.08096,-0.71738 1.5957,-1.02333 0.15166,-0.0901 0.15213,-0.0928 0.002,-0.0109 -1.58173,0.86215 -2.97247,1.86662 -4.28711,3.09636 -0.0892,0.0835 -0.32688,0.31281 -0.39057,0.37693 l -0.0527,0.053 h -0.88385 -0.88384 z"
     id="path63" />
  <path
     style="fill:#68e468;fill-opacity:1;stroke-width:0.00390625"
     d="m 141.31836,234.95703 v -3.61523 h 6.17969 6.17968 v 0.76497 0.76497 l -0.0478,0.0108 c -0.57927,0.13119 -1.21402,0.30152 -1.81347,0.48665 -0.17206,0.0531 -0.23894,0.0763 -0.40625,0.14062 -2.43621,0.93683 -4.68481,2.22637 -6.65039,3.81395 -0.4878,0.39398 -0.88098,0.73697 -1.37885,1.20283 l -0.0488,0.0456 h -0.076 -0.076 l 0.0135,-0.0141 c 0.0412,-0.0432 0.34984,-0.33264 0.50767,-0.4762 1.23159,-1.12025 2.51724,-2.0681 4.06203,-2.99474 0.0889,-0.0533 0.16038,-0.097 0.15876,-0.097 -0.003,0 -0.0943,0.0494 -0.25797,0.13992 -1.60573,0.88842 -3.08241,1.98458 -4.39836,3.26498 -0.0688,0.0669 -0.13733,0.13417 -0.15231,0.14941 l -0.0272,0.0277 h -0.8839 -0.88389 z"
     id="path64" />
  <path
     style="fill:#68e468;fill-opacity:1;stroke-width:0.00390625"
     d="m 141.31836,234.95703 v -3.61523 h 6.17969 6.17968 v 0.76523 0.76523 l -0.0303,0.007 c -0.0835,0.0184 -0.33057,0.0773 -0.4834,0.11528 -0.46468,0.11552 -0.89223,0.23455 -1.33984,0.37302 -0.21418,0.0663 -0.24842,0.0783 -0.50388,0.17765 -2.7382,1.06455 -5.22663,2.57046 -7.36136,4.45483 -0.16123,0.14233 -0.3707,0.33335 -0.57796,0.52708 l -0.0487,0.0455 h -0.0761 -0.0761 l 0.0115,-0.0121 c 0.0397,-0.042 0.34074,-0.32483 0.49207,-0.4623 0.0472,-0.0429 0.10339,-0.0939 0.12487,-0.11348 0.0215,-0.0195 0.0848,-0.0759 0.14063,-0.12534 0.65234,-0.57681 1.31124,-1.10001 2.02148,-1.60516 0.52703,-0.37484 1.14564,-0.77804 1.75586,-1.14446 0.21416,-0.12859 0.22303,-0.13536 0.0625,-0.0477 -1.70349,0.92974 -3.23378,2.0647 -4.6136,3.42176 l -0.0904,0.0889 h -0.88338 -0.88337 z m 6.59581,0.0379 c -0.001,-0.001 -0.004,-1e-5 -0.007,0.003 -0.004,0.004 -0.003,0.004 0.002,0.002 0.004,-0.001 0.006,-0.004 0.005,-0.005 z"
     id="path65" />
  <path
     style="fill:#68e468;fill-opacity:1;stroke-width:0.00390625"
     d="m 141.31836,234.95703 v -3.61523 h 6.17969 6.17968 v 0.76562 c 0,0.4211 -7.1e-4,0.76563 -0.002,0.76563 -0.003,0 -0.14523,0.0327 -0.25622,0.059 -0.55113,0.13081 -1.1388,0.29208 -1.66335,0.45646 -0.17764,0.0557 -0.31126,0.10548 -0.69212,0.25801 -1.30505,0.52267 -2.58407,1.16381 -3.75976,1.8847 -1.41609,0.86828 -2.69518,1.84338 -3.89594,2.97003 l -0.0756,0.071 -0.0767,-1.1e-4 -0.0767,-1.1e-4 0.0528,-0.0516 c 0.15529,-0.15204 0.44972,-0.42428 0.68358,-0.63206 1.16947,-1.03907 2.41781,-1.94725 3.86523,-2.81201 0.16767,-0.10018 0.15774,-0.0968 -0.0488,0.0167 -1.48287,0.81469 -2.83783,1.7896 -4.07812,2.93426 -0.14678,0.13546 -0.45819,0.43327 -0.54091,0.5173 l -0.0272,0.0277 h -0.8839 -0.88389 z"
     id="path66" />
  <path
     style="fill:#68e468;fill-opacity:1;stroke-width:0.00390625"
     d="m 143.38086,238.53637 c 0.36498,-0.34968 0.88273,-0.80297 1.34973,-1.18166 0.96553,-0.78295 2.10768,-1.56518 3.16785,-2.16958 l 0.10547,-0.0601 0.18945,10e-4 c 0.17427,0.001 0.18851,0.002 0.17773,0.007 -0.0244,0.0127 -0.25109,0.14162 -0.37109,0.21112 -0.89068,0.51591 -1.77533,1.10849 -2.5957,1.73873 -0.58958,0.45295 -1.19084,0.96015 -1.71289,1.44496 l -0.0469,0.0435 -0.15039,-5e-5 -0.15039,-5e-5 z"
     id="path67" />
  <path
     style="fill:#68e468;fill-opacity:1;stroke-width:0.00390625"
     d="m 148.01562,235.11588 c 0.044,-0.0268 0.3468,-0.19411 0.4961,-0.27413 0.94204,-0.50496 1.90492,-0.94615 2.89648,-1.32716 0.19673,-0.0756 0.23328,-0.0882 0.44336,-0.15273 0.43593,-0.13393 0.83778,-0.2458 1.27735,-0.35559 0.21152,-0.0528 0.53409,-0.12932 0.54541,-0.12932 0.002,0 0.003,0.0193 0.003,0.0428 v 0.0428 l -0.0166,0.004 c -0.0444,0.0117 -0.3546,0.10112 -0.45996,0.13266 -1.05925,0.3171 -2.07813,0.69862 -3.07226,1.15043 -0.314,0.1427 -0.48155,0.22277 -0.81446,0.38921 -0.32496,0.16247 -0.55841,0.2846 -0.83616,0.43745 l -0.0842,0.0464 -0.19509,-2e-5 c -0.19059,-1e-5 -0.19481,-1.8e-4 -0.18337,-0.007 z"
     id="path68" />
  <path
     style="fill:#68e468;fill-opacity:1;stroke-width:0.00390625"
     d="m 153.67773,232.91862 v -0.0436 l 0.0674,-0.0149 c 0.38838,-0.0858 0.77796,-0.16379 1.13379,-0.22697 0.25763,-0.0457 0.59635,-0.10112 0.60649,-0.0992 0.003,6.6e-4 -0.0236,0.007 -0.0599,0.0142 -0.52346,0.10262 -1.14166,0.24856 -1.70573,0.40268 l -0.042,0.0115 z"
     id="path69" />
  <path
     style="fill:#68e468;fill-opacity:1;stroke-width:0.00390625"
     d="m 170.5214,234.45574 c -0.0953,-0.0471 -0.29901,-0.14348 -0.44523,-0.21054 -2.30843,-1.05872 -4.76951,-1.73705 -7.3164,-2.01658 -0.0612,-0.007 -0.16846,-0.0182 -0.23829,-0.0255 l -0.12695,-0.0133 0.0801,0.002 c 0.4003,0.009 0.78942,0.0245 1.13476,0.0448 0.0991,0.006 0.17645,0.0132 0.30469,0.0291 0.9288,0.11495 1.77188,0.27203 2.49805,0.46543 0.37166,0.099 1.38529,0.39984 1.80893,0.53692 0.0675,0.0218 0.13677,0.0441 0.15396,0.0494 0.0172,0.005 0.10859,0.036 0.20312,0.0682 0.1863,0.0635 0.20133,0.0698 0.45899,0.19436 0.45507,0.21996 0.91581,0.47269 1.46374,0.80291 l 0.0907,0.0547 1.2e-4,0.0264 c 7e-5,0.0145 -3.1e-4,0.0262 -8.5e-4,0.0261 -5.4e-4,-1.8e-4 -0.0318,-0.0156 -0.0694,-0.0342 z"
     id="path70" />
  <path
     style="fill:#68e468;fill-opacity:1;stroke-width:0.00390625"
     d="m 170.76562,234.57561 -0.17187,-0.086 -0.001,-0.0255 -0.001,-0.0255 0.0148,0.009 c 0.0808,0.049 0.3371,0.21089 0.3371,0.21286 0,0.004 -0.0133,-0.003 -0.17774,-0.0848 z"
     id="path71" />
  <path
     style="fill:#68e468;fill-opacity:1;stroke-width:0.00390625"
     d="m 199.25586,261.35156 -3.61523,-3.61523 h 0.0968 0.0968 l 1.05369,1.05176 c 0.57954,0.57846 2.20915,2.20488 3.62138,3.61425 2.03618,2.03208 2.56594,2.56277 2.55931,2.56377 -0.007,10e-4 -0.10715,-0.0968 -0.47208,-0.45893 -1.30027,-1.29041 -1.72598,-1.70458 -1.85825,-1.80788 -0.0366,-0.0285 -0.0513,-0.0367 -0.0689,-0.0381 -0.0191,-0.002 -0.0186,0.009 0.002,0.0371 0.0721,0.10058 0.51263,0.55173 2.01215,2.06049 0.16486,0.16588 0.20481,0.20801 0.19726,0.20801 -0.007,0 -0.79562,-0.78615 -3.6247,-3.61524 z"
     id="path72" />
  <path
     style="fill:#68e468;fill-opacity:1;stroke-width:0.00390625"
     d="m 191.62598,253.72168 -3.39746,-3.39746 v -0.0716 -0.0716 l 0.0127,0.0107 c 0.0342,0.0287 2.46338,2.43727 4.04768,4.01328 0.78422,0.7801 2.924,2.91191 2.924,2.9131 0,6.3e-4 -0.0426,10e-4 -0.0947,10e-4 h -0.0947 z"
     id="path73" />
  <path
     style="fill:#68e468;fill-opacity:1;stroke-width:0.00390625"
     d="m 185.36133,247.45703 c -1.9199,-1.91989 -2.86265,-2.86523 -2.85739,-2.86523 0.008,0 0.0939,0.082 0.61518,0.58571 0.57788,0.55841 1.17508,1.13868 1.85549,1.80289 0.76446,0.74626 1.95247,1.91307 2.82715,2.77669 l 0.42676,0.42136 v 0.0719 c 0,0.0395 -4.4e-4,0.0719 -9.8e-4,0.0719 -5.4e-4,0 -1.29033,-1.28936 -2.86621,-2.86524 z"
     id="path74" />
</svg>
