<?xml version="1.0" encoding="UTF-8" standalone="no"?>
<svg
   viewBox="-2 5 520 515"
   version="1.1"
   id="svg1"
   sodipodi:docname="triangle-exclamation-solid.svg"
   width="520"
   height="515"
   inkscape:version="1.3.2 (091e20e, 2023-11-25, custom)"
   xmlns:inkscape="http://www.inkscape.org/namespaces/inkscape"
   xmlns:sodipodi="http://sodipodi.sourceforge.net/DTD/sodipodi-0.dtd"
   xmlns="http://www.w3.org/2000/svg"
   xmlns:svg="http://www.w3.org/2000/svg">
  <defs
     id="defs1" />
  <sodipodi:namedview
     id="namedview1"
     pagecolor="#ffffff"
     bordercolor="#000000"
     borderopacity="0.25"
     inkscape:showpageshadow="2"
     inkscape:pageopacity="0.0"
     inkscape:pagecheckerboard="0"
     inkscape:deskcolor="#d1d1d1"
     inkscape:zoom="2.2207031"
     inkscape:cx="255.54969"
     inkscape:cy="256"
     inkscape:window-width="2560"
     inkscape:window-height="1351"
     inkscape:window-x="1911"
     inkscape:window-y="-9"
     inkscape:window-maximized="1"
     inkscape:current-layer="svg1" />
  <!--!Font Awesome Free 6.6.0 by @fontawesome - https://fontawesome.com License - https://fontawesome.com/license/free Copyright 2024 Fonticons, Inc.-->
  <path
     d="m 256,32 c 14.2,0 27.3,7.5 34.5,19.8 l 216,368 c 7.3,12.4 7.3,27.7 0.2,40.1 C 499.6,472.3 486.3,480 472,480 H 40 c -14.3,0 -27.6,-7.7 -34.7,-20.1 -7.1,-12.4 -7,-27.8 0.2,-40.1 l 216,-368 C 228.7,39.5 241.8,32 256,32 Z m 0,128 c -13.3,0 -24,10.7 -24,24 v 112 c 0,13.3 10.7,24 24,24 13.3,0 24,-10.7 24,-24 V 184 c 0,-13.3 -10.7,-24 -24,-24 z m 32,224 a 32,32 0 1 0 -64,0 32,32 0 1 0 64,0 z"
     id="path1"
     style="fill:#e2b04a;fill-opacity:1" />
  <path
     style="fill:#e2b04a;fill-opacity:1;stroke-width:0.450308"
     d="M 36.345733,474.36032 C 20.946208,472.09644 8.4414809,461.1046 3.7556453,445.71315 2.6841562,442.19366 2.5501569,441.02393 2.5538781,435.22252 2.5585058,428.00776 3.3505286,423.99526 5.8056821,418.74843 7.8165171,414.45113 224.59646,45.335818 226.77478,42.500138 237.21413,28.910545 256.47503,23.628963 272.4004,29.989017 c 7.42323,2.964587 14.73371,8.901789 18.79816,15.26692 4.21471,6.600448 217.89299,371.054783 219.10689,373.713443 3.07033,6.72478 4.14643,15.15534 2.86823,22.471 -1.42504,8.15636 -4.66964,14.63692 -10.33636,20.64538 -5.38222,5.70684 -11.41459,9.34491 -19.14214,11.5445 l -3.44188,0.97971 -220.65084,0.0667 C 138.2445,474.71338 37.778975,474.57102 36.345733,474.36032 Z M 266.01293,410.20298 c 6.13051,-1.55162 13.24142,-6.10847 17.00341,-10.8962 4.80981,-6.12126 6.9819,-12.4377 6.9819,-20.30343 0,-5.52962 -0.80312,-9.30144 -2.94199,-13.81693 -5.37891,-11.35571 -16.37871,-18.22424 -29.1857,-18.22424 -5.46317,0 -9.19357,0.84301 -14.02886,3.17029 -11.13308,5.35847 -17.84474,16.15627 -17.90238,28.80157 -0.0266,5.84356 0.77024,9.16291 3.56745,14.86016 4.38413,8.92938 13.52231,15.48809 23.80748,17.08725 3.31037,0.51471 9.23514,0.19816 12.69869,-0.67847 z m -1.16687,-96.03693 c 7.51024,-2.08252 13.84714,-8.32963 16.27416,-16.04357 l 0.99763,-3.17085 v -60.1161 c 0,-57.56641 -0.0357,-60.22114 -0.84308,-62.59279 -3.22812,-9.48317 -10.47355,-15.77146 -19.7642,-17.15327 -12.81477,-1.90596 -24.9639,6.81319 -27.31046,19.60009 -0.67814,3.69533 -0.68662,116.98064 -0.009,120.74225 1.28584,7.13833 6.49995,13.9604 13.35672,17.47575 4.20151,2.15404 12.01789,2.7227 17.29827,1.25849 z"
     id="path2"
     transform="translate(-2,5)" />
</svg>
